G04 Layer_Physical_Order=2*
G04 Layer_Color=16711680*
%FSLAX25Y25*%
%MOIN*%
G70*
G01*
G75*
%ADD10C,0.04000*%
%ADD11C,0.01500*%
%ADD12C,0.03000*%
%ADD13C,0.02000*%
%ADD14O,0.05000X0.12000*%
%ADD15R,0.05000X0.12000*%
%ADD16C,0.24000*%
%ADD17C,0.07600*%
%ADD18R,0.07600X0.07600*%
%ADD19C,0.08000*%
%ADD20O,0.19700X0.09800*%
%ADD21O,0.09800X0.19700*%
%ADD22C,0.07500*%
%ADD23O,0.05000X0.12000*%
%ADD24R,0.05000X0.12000*%
%ADD25O,0.05118X0.12000*%
%ADD26C,0.06200*%
%ADD27R,0.06200X0.06200*%
%ADD28R,0.06500X0.06500*%
%ADD29C,0.06500*%
%ADD30C,0.05000*%
D10*
X690000Y372500D02*
Y377500D01*
Y367500D02*
Y372500D01*
Y362500D02*
Y367500D01*
X685000D02*
X690000Y362500D01*
X685000Y367500D02*
X690000Y372500D01*
X685000Y367500D02*
X690000D01*
X675000D02*
X685000D01*
X147500Y415000D02*
X385000D01*
X405000Y404000D02*
Y415000D01*
X395000Y404000D02*
Y415000D01*
X385000Y404000D02*
Y415000D01*
X135000Y382500D02*
X142500Y390000D01*
X115000Y382500D02*
X135000D01*
X110000Y377500D02*
X115000Y382500D01*
X685000D02*
X690000Y377500D01*
X665000Y382500D02*
X685000D01*
X657500Y390000D02*
X665000Y382500D01*
X657500Y390000D02*
Y410000D01*
X142500Y390000D02*
Y410000D01*
X147500Y415000D01*
X385000D02*
X395000D01*
X405000D01*
X652500D02*
X657500Y410000D01*
X405000Y415000D02*
X652500D01*
X355000Y379000D02*
Y404000D01*
X365000Y379000D02*
Y404000D01*
X375000Y379000D02*
Y404000D01*
Y370000D02*
Y379000D01*
X365000Y370000D02*
Y379000D01*
X355000Y370000D02*
X365000D01*
X355000D02*
Y379000D01*
X640000Y260000D02*
Y267500D01*
X637500Y270000D02*
X640000Y267500D01*
X630000Y270000D02*
X637500D01*
X625000Y275000D02*
X630000Y270000D01*
X625000Y275000D02*
Y282500D01*
X640000Y260000D02*
X652500D01*
X665000D01*
X677500D01*
X110000Y354000D02*
Y357500D01*
Y361000D01*
Y361500D02*
Y377500D01*
X365000Y370000D02*
X375000D01*
X402658Y347000D02*
Y351842D01*
X397500Y357000D02*
X402658Y351842D01*
X375000Y357000D02*
X397500D01*
X375000D02*
Y370000D01*
X684500Y327500D02*
X690000Y333000D01*
Y327500D02*
Y333000D01*
Y362500D01*
X671500Y327500D02*
X684500D01*
X690000D01*
Y290000D02*
Y327500D01*
X685000Y285000D02*
X690000Y290000D01*
X665000Y285000D02*
X677500D01*
X683000D01*
X685000D01*
X465000Y379000D02*
Y404000D01*
X110000Y327500D02*
Y354000D01*
Y320000D02*
Y327500D01*
D11*
X279000Y195500D02*
X283500Y200000D01*
X272500Y195500D02*
X279000D01*
X283500Y200000D02*
X392500D01*
X407500Y197500D02*
X477500D01*
X397500Y187500D02*
X407500Y197500D01*
X397500D02*
X402500Y202500D01*
X287500Y197500D02*
X397500D01*
X390000Y202500D02*
X395000Y207500D01*
X230000Y202500D02*
X390000D01*
X385000Y207500D02*
X387500Y210000D01*
X355500Y207500D02*
X385000D01*
X380500Y210000D02*
X382500Y212000D01*
X359500Y210000D02*
X380500D01*
X357500Y212000D02*
X359500Y210000D01*
X405000Y200000D02*
X470000D01*
X400000Y195000D02*
X405000Y200000D01*
X333500Y195000D02*
X400000D01*
X402500Y202500D02*
X462500D01*
X387500Y210000D02*
Y227500D01*
X352500Y210500D02*
X355500Y207500D01*
X382500Y212000D02*
Y219500D01*
X357500Y212000D02*
Y230000D01*
X282500Y192500D02*
X287500Y197500D01*
X282500Y187500D02*
Y192500D01*
X277500Y182500D02*
X282500Y187500D01*
X272500Y182500D02*
X277500D01*
X330000Y191500D02*
X333500Y195000D01*
X600000Y210000D02*
X650000D01*
X595000Y205000D02*
X600000Y210000D01*
X595000Y197500D02*
Y205000D01*
X590500Y212500D02*
X637500D01*
X585000Y207000D02*
X590500Y212500D01*
X585000Y197500D02*
Y207000D01*
X637500Y212500D02*
X640000Y215000D01*
X650000Y210000D02*
X652500Y212500D01*
X617500Y205000D02*
X672500D01*
X615000Y202500D02*
X617500Y205000D01*
X387500Y187500D02*
X397500D01*
X395000Y207500D02*
X445000D01*
X392500Y210000D02*
X437500D01*
X481500Y191500D02*
X510000Y220000D01*
X453500Y191500D02*
X481500D01*
X437500Y210000D02*
X450000Y222500D01*
X477500Y197500D02*
X500000Y220000D01*
X470000Y200000D02*
X490000Y220000D01*
X462500Y202500D02*
X480000Y220000D01*
X445000Y207500D02*
X460000Y222500D01*
X225000Y197500D02*
X230000Y202500D01*
X175000Y207500D02*
X177500Y210000D01*
X145500Y207500D02*
X175000D01*
X142500Y210500D02*
X145500Y207500D01*
X170500Y210000D02*
X172500Y212000D01*
X149500Y210000D02*
X170500D01*
X147500Y212000D02*
X149500Y210000D01*
X225000Y207500D02*
X227500Y210000D01*
X195500Y207500D02*
X225000D01*
X192500Y210500D02*
X195500Y207500D01*
X220500Y210000D02*
X222500Y212000D01*
X199500Y210000D02*
X220500D01*
X197500Y212000D02*
X199500Y210000D01*
X270500D02*
X272500Y212000D01*
X249500Y210000D02*
X270500D01*
X247500Y212000D02*
X249500Y210000D01*
X337500Y210500D02*
Y227500D01*
X334500Y207500D02*
X337500Y210500D01*
X295500Y207500D02*
X334500D01*
X292500Y210500D02*
X295500Y207500D01*
X332500Y212500D02*
Y219500D01*
X330000Y210000D02*
X332500Y212500D01*
X299500Y210000D02*
X330000D01*
X297500Y212000D02*
X299500Y210000D01*
X162500Y350000D02*
X180000Y367500D01*
X476050Y324950D02*
X476300Y325200D01*
X515000Y272000D02*
Y282500D01*
Y272000D02*
X520000Y267000D01*
X510000Y250000D02*
Y267500D01*
X505000Y272500D02*
X510000Y267500D01*
X505000Y245000D02*
X510000Y250000D01*
X520000Y222500D02*
Y267000D01*
Y222500D02*
X522500Y220000D01*
X612500D01*
X615000Y222500D01*
Y230000D01*
X575000Y282500D02*
Y300000D01*
X572500Y302500D02*
X575000Y300000D01*
X340000D02*
X377500D01*
X380000Y297500D01*
X317500Y300000D02*
Y310000D01*
Y300000D02*
X320000Y297500D01*
X375000D01*
X565000Y282500D02*
Y290000D01*
X562500Y292500D02*
X565000Y290000D01*
X375000Y297500D02*
X380000Y292500D01*
X494800Y325200D02*
X507500Y312500D01*
X476300Y325200D02*
X494800D01*
X217500Y302500D02*
Y310000D01*
X145000Y302500D02*
Y310000D01*
X305000Y357000D02*
Y379000D01*
X143500Y376500D02*
X150000Y370000D01*
X132500Y350000D02*
X162500D01*
X130000Y347500D02*
X132500Y350000D01*
X130000Y322500D02*
Y347500D01*
Y322500D02*
X135000Y317500D01*
Y330000D02*
X142500Y322500D01*
X135000Y330000D02*
Y340000D01*
Y310000D02*
Y317500D01*
X148000Y364500D02*
X152500Y360000D01*
X139500Y364500D02*
X148000D01*
X175000Y350000D02*
X185000Y360000D01*
X192500D01*
X137500Y376500D02*
X143500D01*
X132500Y371500D02*
X137500Y376500D01*
X212500Y350000D02*
X217500Y345000D01*
X182500Y350000D02*
X212500D01*
X175000Y340000D02*
Y350000D01*
X217500Y340000D02*
Y345000D01*
X180000Y347500D02*
X182500Y350000D01*
X180000Y332000D02*
Y347500D01*
X177500Y329500D02*
X180000Y332000D01*
X158000Y329500D02*
X177500D01*
X155000Y332500D02*
X158000Y329500D01*
X155000Y332500D02*
Y340000D01*
X185000Y327500D02*
X187500Y325000D01*
X185000Y327500D02*
Y340000D01*
X277500Y325000D02*
Y340000D01*
X175000Y320000D02*
X177500Y322500D01*
X175000Y310000D02*
Y320000D01*
X172500Y322500D02*
X175000Y320000D01*
X142500Y322500D02*
X172500D01*
X476300Y325200D02*
X476500Y325000D01*
X351000Y322500D02*
X492500D01*
X347500Y326000D02*
X351000Y322500D01*
X347500Y326000D02*
Y340000D01*
X332500Y320000D02*
X490000D01*
X327500Y325000D02*
X332500Y320000D01*
X327500Y325000D02*
Y340000D01*
X357550Y302450D02*
X524950D01*
X357500Y302500D02*
X357550Y302450D01*
X357500Y302500D02*
Y310000D01*
X337500Y302500D02*
X340000Y300000D01*
X337500Y302500D02*
Y310000D01*
X587500Y250000D02*
X590000Y252500D01*
Y267500D01*
X595000Y272500D01*
Y282500D01*
X585000Y272500D02*
Y282500D01*
X582500Y270000D02*
X585000Y272500D01*
X577500Y270000D02*
X582500D01*
X575000Y267500D02*
X577500Y270000D01*
X575000Y260000D02*
Y267500D01*
X460000Y222500D02*
Y245000D01*
X450000Y222500D02*
Y245000D01*
X225000Y182500D02*
Y197500D01*
X222500Y180000D02*
X225000Y182500D01*
X470000Y220000D02*
Y245000D01*
X510000Y220000D02*
Y242500D01*
X515000Y247500D01*
Y260000D01*
X500000Y220000D02*
Y245000D01*
X505000Y250000D01*
Y260000D01*
X490000Y220000D02*
Y245000D01*
X495000Y250000D01*
Y260000D01*
X480000Y220000D02*
Y245000D01*
X485000Y250000D01*
Y260000D01*
X470000Y245000D02*
X475000Y250000D01*
Y260000D01*
X460000Y245000D02*
X465000Y250000D01*
Y260000D01*
X450000Y245000D02*
X455000Y250000D01*
Y260000D01*
X445000Y245000D02*
X450000Y250000D01*
X445000Y230000D02*
Y245000D01*
X455000Y230000D02*
Y245000D01*
X460000Y250000D01*
X465000Y230000D02*
Y245000D01*
X470000Y250000D01*
X475000Y230000D02*
Y245000D01*
X480000Y250000D01*
X485000Y230000D02*
Y245000D01*
X490000Y250000D01*
X495000Y230000D02*
Y245000D01*
X500000Y250000D01*
X505000Y230000D02*
Y245000D01*
X575000Y342500D02*
Y379000D01*
X565000Y335000D02*
Y342500D01*
Y335000D02*
X567500Y332500D01*
X577500D01*
X580000Y335000D01*
Y352500D01*
X585000Y357500D01*
Y379000D01*
X555000Y332500D02*
Y342500D01*
Y332500D02*
X557500Y330000D01*
X587500D01*
X590000Y332500D01*
Y352500D01*
X595000Y357500D01*
Y379000D01*
X545000Y332500D02*
Y342500D01*
Y332500D02*
X550000Y327500D01*
X597500D01*
X600000Y330000D01*
Y352500D01*
X605000Y357500D01*
Y379000D01*
X615000Y357500D02*
Y379000D01*
X610000Y352500D02*
X615000Y357500D01*
X610000Y330000D02*
Y352500D01*
X605000Y325000D02*
X610000Y330000D01*
X537500Y325000D02*
X605000D01*
X535000Y327500D02*
X537500Y325000D01*
X535000Y327500D02*
Y342500D01*
X625000Y357500D02*
Y379000D01*
X620000Y352500D02*
X625000Y357500D01*
X620000Y325000D02*
Y352500D01*
X617500Y322500D02*
X620000Y325000D01*
X527000Y322500D02*
X617500D01*
X525000Y324500D02*
X527000Y322500D01*
X525000Y324500D02*
Y342500D01*
X635000Y357500D02*
Y379000D01*
X630000Y352500D02*
X635000Y357500D01*
X630000Y325500D02*
Y352500D01*
X624500Y320000D02*
X630000Y325500D01*
X517500Y320000D02*
X624500D01*
X515000Y322500D02*
X517500Y320000D01*
X515000Y322500D02*
Y342500D01*
X505000Y322500D02*
Y342500D01*
Y322500D02*
X510000Y317500D01*
X627500D01*
X632500Y322500D01*
Y350000D01*
X645000Y362500D01*
Y379000D01*
X475000Y342500D02*
Y352000D01*
X472000Y355000D02*
X475000Y352000D01*
X422500Y355000D02*
X472000D01*
X485000Y342500D02*
Y352500D01*
X480000Y357500D02*
X485000Y352500D01*
X415000Y362500D02*
X422500Y355000D01*
X415000Y362500D02*
Y379000D01*
X432500Y357500D02*
X480000D01*
X425000Y365000D02*
X432500Y357500D01*
X425000Y365000D02*
Y379000D01*
X180000Y230000D02*
X190000D01*
X192500Y227500D01*
Y219500D02*
Y227500D01*
X177500D02*
X180000Y230000D01*
X177500Y210000D02*
Y227500D01*
X142500Y210500D02*
Y219500D01*
X172500Y212000D02*
Y219500D01*
X112500D02*
Y230000D01*
X162500Y219500D02*
Y230000D01*
X212500Y219500D02*
Y230000D01*
X262500Y220000D02*
Y230500D01*
X372500Y219500D02*
Y230000D01*
X322500Y219500D02*
Y230000D01*
X262500Y230500D02*
X263000D01*
X192500Y210500D02*
Y219500D01*
X227500Y210000D02*
Y227500D01*
X230000Y230000D01*
X240000D02*
X242500Y227500D01*
X230000Y230000D02*
X240000D01*
X242500Y210500D02*
Y219500D01*
X277500Y210000D02*
Y227500D01*
X280000Y230000D01*
X290000D02*
X292500Y227500D01*
X280000Y230000D02*
X290000D01*
X292500Y210500D02*
Y219500D01*
X352500Y210500D02*
Y219500D01*
X387500Y227500D02*
X390000Y230000D01*
X400000D02*
X402500Y227500D01*
X390000Y230000D02*
X400000D01*
X402500Y219500D02*
Y227500D01*
X352500Y219500D02*
Y227500D01*
X350000Y230000D02*
X352500Y227500D01*
X292500Y219500D02*
Y227500D01*
X242500Y219500D02*
Y227500D01*
X112500Y230000D02*
X117500Y235000D01*
X157500D01*
X162500Y230000D01*
X167500Y235000D01*
X207500D01*
X212500Y230000D01*
Y230500D02*
X217000Y235000D01*
X258000D01*
X262500Y230500D01*
X263000D02*
X267500Y235000D01*
X317500D01*
X322500Y230000D01*
X327500Y235000D01*
X367500D01*
X372500Y230000D01*
X145000Y232500D02*
X147500Y230000D01*
Y212000D02*
Y230000D01*
X122500Y219500D02*
Y230000D01*
X125000Y232500D01*
X145000D01*
X175000D02*
X195000D01*
X172500Y230000D02*
X175000Y232500D01*
X172500Y219500D02*
Y230000D01*
X197500Y212000D02*
Y230000D01*
X195000Y232500D02*
X197500Y230000D01*
X222500Y212000D02*
Y219500D01*
X225000Y232500D02*
X245000D01*
X222500Y230000D02*
X225000Y232500D01*
X222500Y219500D02*
Y230000D01*
X247500Y212000D02*
Y230000D01*
X245000Y232500D02*
X247500Y230000D01*
X272500Y212000D02*
Y219500D01*
X275000Y232500D02*
X295000D01*
X272500Y230000D02*
X275000Y232500D01*
X272500Y219500D02*
Y230000D01*
X297500Y212000D02*
Y230000D01*
X295000Y232500D02*
X297500Y230000D01*
X337500Y227500D02*
X340000Y230000D01*
X350000D01*
X335000Y232500D02*
X355000D01*
X332500Y230000D02*
X335000Y232500D01*
X332500Y219500D02*
Y230000D01*
X355000Y232500D02*
X357500Y230000D01*
X122500Y279500D02*
Y290000D01*
X125000Y292500D01*
X155000D01*
X157500Y290000D01*
Y272500D02*
Y290000D01*
Y272500D02*
X160000Y270000D01*
X170000D01*
X172500Y272500D01*
Y279500D01*
X152500Y270000D02*
Y279500D01*
Y270000D02*
X155000Y267500D01*
X185000D01*
X187500Y270000D01*
Y287500D01*
X190000Y290000D01*
X199500D01*
X202500Y287000D01*
Y279500D02*
Y287000D01*
X252500Y279500D02*
Y287000D01*
X249500Y290000D02*
X252500Y287000D01*
X240000Y290000D02*
X249500D01*
X237500Y287500D02*
X240000Y290000D01*
X237500Y270000D02*
Y287500D01*
X235000Y267500D02*
X237500Y270000D01*
X205000Y267500D02*
X235000D01*
X202500Y270000D02*
X205000Y267500D01*
X202500Y270000D02*
Y279500D01*
X302500D02*
Y287000D01*
X299500Y290000D02*
X302500Y287000D01*
X290000Y290000D02*
X299500D01*
X287500Y287500D02*
X290000Y290000D01*
X287500Y270000D02*
Y287500D01*
X285000Y267500D02*
X287500Y270000D01*
X255000Y267500D02*
X285000D01*
X252500Y270000D02*
X255000Y267500D01*
X252500Y270000D02*
Y279500D01*
X412500D02*
Y287000D01*
X409500Y290000D02*
X412500Y287000D01*
X400000Y290000D02*
X409500D01*
X397500Y287500D02*
X400000Y290000D01*
X397500Y270000D02*
Y287500D01*
X395000Y267500D02*
X397500Y270000D01*
X365000Y267500D02*
X395000D01*
X362500Y270000D02*
X365000Y267500D01*
X362500Y270000D02*
Y279500D01*
X340000Y290000D02*
X359500D01*
X337500Y287500D02*
X340000Y290000D01*
X337500Y270000D02*
Y287500D01*
X335000Y267500D02*
X337500Y270000D01*
X305000Y267500D02*
X335000D01*
X302500Y270000D02*
X305000Y267500D01*
X302500Y270000D02*
Y279500D01*
X362500D02*
Y287000D01*
X359500Y290000D02*
X362500Y287000D01*
X222500Y272500D02*
Y279500D01*
X220000Y270000D02*
X222500Y272500D01*
X210000Y270000D02*
X220000D01*
X207500Y272500D02*
X210000Y270000D01*
X207500Y272500D02*
Y290000D01*
X205000Y292500D02*
X207500Y290000D01*
X175000Y292500D02*
X205000D01*
X172500Y290000D02*
X175000Y292500D01*
X172500Y279500D02*
Y290000D01*
X272500Y272500D02*
Y279500D01*
X270000Y270000D02*
X272500Y272500D01*
X260000Y270000D02*
X270000D01*
X257500Y272500D02*
X260000Y270000D01*
X257500Y272500D02*
Y290000D01*
X255000Y292500D02*
X257500Y290000D01*
X225000Y292500D02*
X255000D01*
X222500Y290000D02*
X225000Y292500D01*
X222500Y279500D02*
Y290000D01*
X310000Y270000D02*
X330000D01*
X307500Y272500D02*
X310000Y270000D01*
X307500Y272500D02*
Y290000D01*
X305000Y292500D02*
X307500Y290000D01*
X275000Y292500D02*
X305000D01*
X272500Y290000D02*
X275000Y292500D01*
X272500Y279500D02*
Y290000D01*
X332500Y272500D02*
Y279500D01*
X330000Y270000D02*
X332500Y272500D01*
X382500D02*
Y279500D01*
X380000Y270000D02*
X382500Y272500D01*
X370000Y270000D02*
X380000D01*
X367500Y272500D02*
X370000Y270000D01*
X367500Y272500D02*
Y290000D01*
X365000Y292500D02*
X367500Y290000D01*
X335000Y292500D02*
X365000D01*
X332500Y290000D02*
X335000Y292500D01*
X332500Y279500D02*
Y290000D01*
X142500Y267500D02*
Y279500D01*
Y267500D02*
X145000Y265000D01*
X190000D01*
X192500Y267500D01*
Y279500D01*
X242500Y267500D02*
Y279500D01*
X240000Y265000D02*
X242500Y267500D01*
X195000Y265000D02*
X240000D01*
X192500Y267500D02*
X195000Y265000D01*
X292500Y267500D02*
Y279500D01*
X290000Y265000D02*
X292500Y267500D01*
X245000Y265000D02*
X290000D01*
X242500Y267500D02*
X245000Y265000D01*
X402500Y267500D02*
Y279500D01*
X400000Y265000D02*
X402500Y267500D01*
X355000Y265000D02*
X400000D01*
X352500Y267500D02*
X355000Y265000D01*
X292500Y267500D02*
X295000Y265000D01*
X352500Y267500D02*
Y279500D01*
X350000Y265000D02*
X352500Y267500D01*
X295000Y265000D02*
X350000D01*
X160000Y295000D02*
X162500Y292500D01*
Y279500D02*
Y292500D01*
X112500Y279500D02*
Y292500D01*
X115000Y295000D01*
X160000D01*
X165000D02*
X210000D01*
X162500Y292500D02*
X165000Y295000D01*
X212500Y279500D02*
Y292500D01*
X210000Y295000D02*
X212500Y292500D01*
X215000Y295000D02*
X260000D01*
X212500Y292500D02*
X215000Y295000D01*
X262500Y279500D02*
Y292500D01*
X260000Y295000D02*
X262500Y292500D01*
X265000Y295000D01*
X325000D02*
X370000D01*
X322500Y292500D02*
X325000Y295000D01*
X372500Y279500D02*
Y292500D01*
X370000Y295000D02*
X372500Y292500D01*
X322500Y279500D02*
Y292500D01*
X320000Y295000D02*
X322500Y292500D01*
X265000Y295000D02*
X320000D01*
X640000Y215000D02*
Y220000D01*
X652500Y212500D02*
Y220000D01*
X605000Y197500D02*
Y205000D01*
X607500Y207500D01*
X662500D01*
X665000Y210000D01*
Y220000D01*
X677500Y210000D02*
Y220000D01*
X672500Y205000D02*
X677500Y210000D01*
X615000Y197500D02*
Y202500D01*
X600000Y242500D02*
X645000D01*
X607500Y240000D02*
X634500D01*
X580000Y247500D02*
X667500D01*
X590000Y245000D02*
X657500D01*
X605000Y230000D02*
Y237500D01*
X607500Y240000D01*
X595000Y230000D02*
Y237500D01*
X600000Y242500D01*
X634500Y240000D02*
X640000Y234500D01*
Y220000D02*
Y234500D01*
X645000Y242500D02*
X652500Y235000D01*
X657500Y245000D02*
X665000Y237500D01*
X585000Y240000D02*
X590000Y245000D01*
X667500Y247500D02*
X677500Y237500D01*
X575000Y242500D02*
X580000Y247500D01*
X652500Y220000D02*
Y235000D01*
X585000Y230000D02*
Y240000D01*
X665000Y220000D02*
Y237500D01*
X575000Y230000D02*
Y242500D01*
X677500Y220000D02*
Y237500D01*
X445000Y272500D02*
Y282500D01*
X455000Y272500D02*
Y282500D01*
X465000Y272500D02*
Y282500D01*
X475000Y272500D02*
Y282500D01*
X485000Y272500D02*
Y282500D01*
X495000Y272500D02*
Y282500D01*
X505000Y272500D02*
Y282500D01*
X450000Y250000D02*
Y267500D01*
X445000Y272500D02*
X450000Y267500D01*
X460000Y250000D02*
Y267500D01*
X455000Y272500D02*
X460000Y267500D01*
X470000Y250000D02*
Y267500D01*
X465000Y272500D02*
X470000Y267500D01*
X480000Y250000D02*
Y267500D01*
X475000Y272500D02*
X480000Y267500D01*
X490000Y250000D02*
Y267500D01*
X485000Y272500D02*
X490000Y267500D01*
X500000Y250000D02*
Y267500D01*
X495000Y272500D02*
X500000Y267500D01*
X260000Y322500D02*
X262500Y320000D01*
Y302500D02*
Y320000D01*
X177500Y322500D02*
X260000D01*
X217500Y302500D02*
X222500Y297500D01*
X145000Y302500D02*
X150000Y297500D01*
X212500D01*
X217500Y302500D01*
X262500D02*
X265000Y300000D01*
X222500Y297500D02*
X283000D01*
X265000Y300000D02*
X280000D01*
X284000Y304000D01*
Y318500D01*
X277500Y325000D02*
X284000Y318500D01*
X267500Y310000D02*
Y319000D01*
X261500Y325000D02*
X267500Y319000D01*
X187500Y325000D02*
X261500D01*
X367500Y330500D02*
Y340000D01*
Y330500D02*
X373050Y324950D01*
X476050D01*
X565000Y230000D02*
Y239500D01*
X575500Y250000D01*
X587500D01*
X283000Y297500D02*
X287500Y302000D01*
X292500Y350000D02*
X298000D01*
X287500Y302000D02*
Y322500D01*
X283500Y326500D02*
X287500Y322500D01*
X265000Y362500D02*
X272500D01*
X283500Y351500D01*
Y326500D02*
Y351500D01*
X287500Y347500D02*
X292500Y342500D01*
X287500Y347500D02*
Y352500D01*
X272500Y367500D02*
X287500Y352500D01*
X180000Y367500D02*
X272500D01*
X298000Y350000D02*
X305000Y357000D01*
X150000Y370000D02*
X279000D01*
X292500Y356500D01*
Y350000D02*
Y356500D01*
X380000Y292500D02*
X562500D01*
X524950Y302450D02*
X525000Y302500D01*
X507500Y312500D02*
X535000D01*
X492500Y322500D02*
X505000Y310000D01*
X530000D01*
X532500Y307500D01*
X555000D01*
X490000Y320000D02*
X503000Y307000D01*
X527500D01*
X532000Y302500D01*
X572500D01*
X380000Y297500D02*
X545000D01*
X387500Y205000D02*
X392500Y210000D01*
X182500Y192500D02*
X195000Y205000D01*
X387500D01*
X275000Y207500D02*
X277500Y210000D01*
X242500Y210500D02*
X245500Y207500D01*
X275000D01*
X455000Y205000D02*
X470000Y220000D01*
X392500Y200000D02*
X397500Y205000D01*
X455000D01*
X452500Y192500D02*
X453500Y191500D01*
X212500Y180000D02*
X222500D01*
X172500Y192500D02*
X182500D01*
D12*
X235000Y379000D02*
Y404000D01*
X245000Y379000D02*
Y404000D01*
X265000Y379000D02*
Y404000D01*
X305000Y379000D02*
Y404000D01*
X335000Y379000D02*
Y404000D01*
X385000Y379000D02*
Y404000D01*
X395000Y379000D02*
Y404000D01*
X405000Y379000D02*
Y404000D01*
X415000Y379000D02*
Y404000D01*
X425000Y379000D02*
Y404000D01*
X575000Y379000D02*
Y404000D01*
X585000Y379000D02*
Y404000D01*
X595000Y379000D02*
Y404000D01*
X605000Y379000D02*
Y404000D01*
X615000Y379000D02*
Y404000D01*
X625000Y379000D02*
Y404000D01*
X635000Y379000D02*
Y404000D01*
X645000Y379000D02*
Y404000D01*
X404500Y370000D02*
X405000Y370500D01*
Y379000D01*
X395000Y370000D02*
Y379000D01*
X385000Y370000D02*
X395000D01*
X385000D02*
Y379000D01*
X125000Y310000D02*
Y340000D01*
X155000Y379000D02*
Y404000D01*
X165000Y379000D02*
Y404000D01*
X175000Y379000D02*
Y404000D01*
X185000Y379000D02*
Y404000D01*
X195000Y379000D02*
Y404000D01*
X205000Y379000D02*
Y404000D01*
X215000Y379000D02*
Y404000D01*
X225000Y379000D02*
Y404000D01*
X255000Y379000D02*
Y404000D01*
X275000Y379000D02*
Y404000D01*
X285000Y379000D02*
Y404000D01*
X315000Y379000D02*
Y404000D01*
X325000Y379000D02*
Y404000D01*
X345000Y379000D02*
Y404000D01*
X435000Y379000D02*
Y404000D01*
X445000Y379000D02*
Y404000D01*
X455000Y379000D02*
Y404000D01*
X475000Y379000D02*
Y404000D01*
X485000Y379000D02*
Y404000D01*
X495000Y379000D02*
Y404000D01*
X505000Y379000D02*
Y404000D01*
X515000Y379000D02*
Y404000D01*
X565000Y379000D02*
Y404000D01*
X555000Y379000D02*
Y404000D01*
X545000Y379000D02*
Y404000D01*
X535000Y379000D02*
Y404000D01*
X525000Y379000D02*
Y404000D01*
X295000Y379000D02*
Y404000D01*
X317500Y340000D02*
Y347500D01*
X321500Y351500D01*
X382500D01*
X390000Y344000D01*
X307500Y340000D02*
Y350000D01*
X314500Y357000D01*
X412500Y347000D02*
Y354000D01*
X404500Y362000D02*
X412500Y354000D01*
X401500Y369500D02*
X404500Y366500D01*
X401500Y369500D02*
Y370000D01*
X404500Y362000D02*
Y366500D01*
Y370000D01*
X395000D02*
X401500D01*
X404500D01*
X314500Y357000D02*
X375000D01*
X412500Y340000D02*
Y347000D01*
X404000Y331500D02*
X412500Y340000D01*
X397157Y331500D02*
X404000D01*
X396000D02*
X397157D01*
X390000Y337500D02*
X396000Y331500D01*
X390000Y337500D02*
Y344000D01*
X435000Y277500D02*
Y282500D01*
Y277500D02*
X445000Y267500D01*
Y260000D02*
Y267500D01*
X377500Y310000D02*
X440500D01*
D13*
X110000Y354000D02*
X113500Y357500D01*
X110000D02*
X113500D01*
X132500D01*
X110000Y361000D02*
X113500Y357500D01*
X110000Y361000D02*
Y361500D01*
D14*
X372500Y279500D02*
D03*
X382500D02*
D03*
X392500D02*
D03*
X402500D02*
D03*
X412500D02*
D03*
Y219500D02*
D03*
X402500D02*
D03*
X392500D02*
D03*
X382500D02*
D03*
X332500D02*
D03*
X342500D02*
D03*
X352500D02*
D03*
X362500D02*
D03*
Y279500D02*
D03*
X352500D02*
D03*
X342500D02*
D03*
X332500D02*
D03*
X322500D02*
D03*
X262500D02*
D03*
X272500D02*
D03*
X282500D02*
D03*
X292500D02*
D03*
X302500D02*
D03*
Y219500D02*
D03*
X292500D02*
D03*
X282500D02*
D03*
X272500D02*
D03*
X222500D02*
D03*
X232500D02*
D03*
X242500D02*
D03*
X252500D02*
D03*
Y279500D02*
D03*
X242500D02*
D03*
X232500D02*
D03*
X222500D02*
D03*
X212500D02*
D03*
X162500D02*
D03*
X172500D02*
D03*
X182500D02*
D03*
X192500D02*
D03*
X202500D02*
D03*
Y219500D02*
D03*
X192500D02*
D03*
X182500D02*
D03*
X172500D02*
D03*
X122500D02*
D03*
X132500D02*
D03*
X142500D02*
D03*
X152500D02*
D03*
Y279500D02*
D03*
X142500D02*
D03*
X132500D02*
D03*
X122500D02*
D03*
X112500D02*
D03*
D15*
X372500Y219500D02*
D03*
X322500D02*
D03*
X262500D02*
D03*
X212500D02*
D03*
X162500D02*
D03*
X112500D02*
D03*
X435000Y230000D02*
D03*
D16*
X125000Y190000D02*
D03*
X675000D02*
D03*
Y400000D02*
D03*
X125000D02*
D03*
D17*
X395000Y379000D02*
D03*
X385000D02*
D03*
X375000D02*
D03*
X365000D02*
D03*
X355000D02*
D03*
X345000D02*
D03*
X335000D02*
D03*
X325000D02*
D03*
X315000D02*
D03*
X305000D02*
D03*
X295000D02*
D03*
X285000D02*
D03*
X275000D02*
D03*
X235000D02*
D03*
X245000D02*
D03*
X255000D02*
D03*
X265000D02*
D03*
X195000D02*
D03*
X205000D02*
D03*
X215000D02*
D03*
X225000D02*
D03*
X155000D02*
D03*
X165000D02*
D03*
X175000D02*
D03*
X185000D02*
D03*
X435000D02*
D03*
X425000D02*
D03*
X415000D02*
D03*
X405000D02*
D03*
X475000D02*
D03*
X465000D02*
D03*
X455000D02*
D03*
X445000D02*
D03*
X515000D02*
D03*
X505000D02*
D03*
X495000D02*
D03*
X485000D02*
D03*
X525000D02*
D03*
X535000D02*
D03*
X545000D02*
D03*
X555000D02*
D03*
X565000D02*
D03*
X575000D02*
D03*
X585000D02*
D03*
X595000D02*
D03*
X605000D02*
D03*
X615000D02*
D03*
X625000D02*
D03*
X635000D02*
D03*
Y404000D02*
D03*
X625000D02*
D03*
X615000D02*
D03*
X605000D02*
D03*
X595000D02*
D03*
X585000D02*
D03*
X575000D02*
D03*
X565000D02*
D03*
X555000D02*
D03*
X545000D02*
D03*
X535000D02*
D03*
X525000D02*
D03*
X485000D02*
D03*
X495000D02*
D03*
X505000D02*
D03*
X515000D02*
D03*
X445000D02*
D03*
X455000D02*
D03*
X465000D02*
D03*
X475000D02*
D03*
X405000D02*
D03*
X415000D02*
D03*
X425000D02*
D03*
X435000D02*
D03*
X185000D02*
D03*
X175000D02*
D03*
X165000D02*
D03*
X155000D02*
D03*
X225000D02*
D03*
X215000D02*
D03*
X205000D02*
D03*
X195000D02*
D03*
X265000D02*
D03*
X255000D02*
D03*
X245000D02*
D03*
X235000D02*
D03*
X275000D02*
D03*
X285000D02*
D03*
X295000D02*
D03*
X305000D02*
D03*
X315000D02*
D03*
X325000D02*
D03*
X335000D02*
D03*
X345000D02*
D03*
X355000D02*
D03*
X365000D02*
D03*
X375000D02*
D03*
X385000D02*
D03*
X395000D02*
D03*
D18*
X645000Y379000D02*
D03*
Y404000D02*
D03*
D19*
X665000Y285000D02*
D03*
X655000D02*
D03*
D20*
X656700Y348700D02*
D03*
D21*
X646900Y327500D02*
D03*
X671500D02*
D03*
D22*
X675000Y367500D02*
D03*
X665000D02*
D03*
X132500Y371500D02*
D03*
Y357500D02*
D03*
X139500Y364500D02*
D03*
D23*
X555000Y260000D02*
D03*
X565000D02*
D03*
X575000D02*
D03*
X585000D02*
D03*
X595000D02*
D03*
X605000D02*
D03*
X615000D02*
D03*
X625000D02*
D03*
Y230000D02*
D03*
X615000D02*
D03*
X605000D02*
D03*
X595000D02*
D03*
X585000D02*
D03*
X575000D02*
D03*
X565000D02*
D03*
X435000Y342500D02*
D03*
X445000D02*
D03*
X455000D02*
D03*
X465000D02*
D03*
X475000D02*
D03*
X485000D02*
D03*
X495000D02*
D03*
X505000D02*
D03*
X515000D02*
D03*
X525000D02*
D03*
X535000D02*
D03*
X545000D02*
D03*
X555000D02*
D03*
X565000D02*
D03*
X575000D02*
D03*
X585000D02*
D03*
X595000D02*
D03*
X605000D02*
D03*
X615000D02*
D03*
X625000D02*
D03*
Y282500D02*
D03*
X615000D02*
D03*
X605000D02*
D03*
X595000D02*
D03*
X585000D02*
D03*
X575000D02*
D03*
X565000D02*
D03*
X555000D02*
D03*
X545000D02*
D03*
X535000D02*
D03*
X525000D02*
D03*
X515000D02*
D03*
X505000D02*
D03*
X495000D02*
D03*
X485000D02*
D03*
X475000D02*
D03*
X465000D02*
D03*
X455000D02*
D03*
X445000D02*
D03*
X217500Y310000D02*
D03*
X227500D02*
D03*
X237500D02*
D03*
X247500D02*
D03*
X257500D02*
D03*
X267500D02*
D03*
X277500D02*
D03*
Y340000D02*
D03*
X267500D02*
D03*
X257500D02*
D03*
X247500D02*
D03*
X237500D02*
D03*
X227500D02*
D03*
X217500D02*
D03*
X207500D02*
D03*
X307500D02*
D03*
X317500D02*
D03*
X327500D02*
D03*
X337500D02*
D03*
X347500D02*
D03*
X357500D02*
D03*
X367500D02*
D03*
X377500D02*
D03*
Y310000D02*
D03*
X367500D02*
D03*
X357500D02*
D03*
X347500D02*
D03*
X337500D02*
D03*
X327500D02*
D03*
X317500D02*
D03*
X125000Y340000D02*
D03*
X135000D02*
D03*
X145000D02*
D03*
X155000D02*
D03*
X165000D02*
D03*
X175000D02*
D03*
X185000D02*
D03*
Y310000D02*
D03*
X175000D02*
D03*
X165000D02*
D03*
X155000D02*
D03*
X145000D02*
D03*
X135000D02*
D03*
D24*
X555000Y230000D02*
D03*
X435000Y282500D02*
D03*
X207500Y310000D02*
D03*
X307500D02*
D03*
X125000D02*
D03*
D25*
X445000Y230000D02*
D03*
X455000D02*
D03*
X465000D02*
D03*
X475000D02*
D03*
X485000D02*
D03*
X495000D02*
D03*
X505000D02*
D03*
X515000D02*
D03*
X525000D02*
D03*
Y260000D02*
D03*
X515000D02*
D03*
X505000D02*
D03*
X495000D02*
D03*
X485000D02*
D03*
X475000D02*
D03*
X465000D02*
D03*
X455000D02*
D03*
X445000D02*
D03*
X435000D02*
D03*
D26*
X535000Y197500D02*
D03*
X545000D02*
D03*
X555000D02*
D03*
X565000D02*
D03*
X575000D02*
D03*
X585000D02*
D03*
X595000D02*
D03*
X605000D02*
D03*
X615000D02*
D03*
X640000Y260000D02*
D03*
Y220000D02*
D03*
X652500D02*
D03*
Y260000D02*
D03*
X665000D02*
D03*
Y220000D02*
D03*
X677500D02*
D03*
Y260000D02*
D03*
X152500Y360000D02*
D03*
X192500D02*
D03*
X452500Y191500D02*
D03*
X412500D02*
D03*
X347500Y187500D02*
D03*
X387500D02*
D03*
X330000Y191500D02*
D03*
X290000D02*
D03*
X232500Y182500D02*
D03*
X272500D02*
D03*
Y195500D02*
D03*
X232500D02*
D03*
X172500Y182500D02*
D03*
X212500D02*
D03*
X172500Y195500D02*
D03*
X212500D02*
D03*
X680000Y300000D02*
D03*
X640000D02*
D03*
D27*
X625000Y197500D02*
D03*
D28*
X402658Y347000D02*
D03*
D29*
X412500D02*
D03*
X294000Y314500D02*
D03*
Y334186D02*
D03*
X416843Y331500D02*
D03*
X397157D02*
D03*
D30*
X265000Y362500D02*
D03*
X555000Y307500D02*
D03*
X545000Y297500D02*
D03*
X292500Y350000D02*
D03*
Y342500D02*
D03*
X525000Y302500D02*
D03*
X535000Y312500D02*
D03*
X440500Y310000D02*
D03*
X447500D02*
D03*
X677500Y285000D02*
D03*
X683000D02*
D03*
X110000Y327500D02*
D03*
Y320000D02*
D03*
M02*
