G04 Layer_Physical_Order=1*
G04 Layer_Color=255*
%FSLAX25Y25*%
%MOIN*%
G70*
G01*
G75*
%ADD10C,0.04000*%
%ADD11C,0.01500*%
%ADD12C,0.03000*%
%ADD13C,0.02000*%
%ADD14O,0.05000X0.12000*%
%ADD15R,0.05000X0.12000*%
%ADD16C,0.24000*%
%ADD17C,0.07600*%
%ADD18R,0.07600X0.07600*%
%ADD19C,0.08000*%
%ADD20O,0.19700X0.09800*%
%ADD21O,0.09800X0.19700*%
%ADD22C,0.07500*%
%ADD23O,0.05000X0.12000*%
%ADD24R,0.05000X0.12000*%
%ADD25O,0.05118X0.12000*%
%ADD26C,0.06200*%
%ADD27R,0.06200X0.06200*%
%ADD28R,0.06500X0.06500*%
%ADD29C,0.06500*%
%ADD30C,0.05000*%
D10*
X110000Y377500D02*
X115000Y382500D01*
X665000Y367500D02*
Y382500D01*
X355000Y404000D02*
Y415000D01*
X147500D02*
X355000D01*
X142500Y410000D02*
X147500Y415000D01*
X375000D02*
X652500D01*
X375000Y404000D02*
Y415000D01*
X365000Y404000D02*
Y415000D01*
X142500Y390000D02*
Y410000D01*
X135000Y382500D02*
X142500Y390000D01*
X657500D02*
Y410000D01*
Y390000D02*
X665000Y382500D01*
X685000D01*
X115000D02*
X135000D01*
X365000Y415000D02*
X375000D01*
X355000D02*
X365000D01*
X652500D02*
X657500Y410000D01*
X118000Y340000D02*
X125000D01*
X110000Y348000D02*
Y377500D01*
Y348000D02*
X118000Y340000D01*
X402658Y339842D02*
Y347000D01*
Y339842D02*
X411000Y331500D01*
X416843D01*
Y318657D02*
Y331500D01*
Y318657D02*
X426000Y309500D01*
X623000Y323950D02*
X626550Y327500D01*
X635000Y332000D02*
X639500Y327500D01*
X635000D02*
X639500D01*
X646900D01*
X630775D02*
X635000Y331725D01*
Y327500D02*
Y331725D01*
Y332000D01*
X626550Y327500D02*
X630775D01*
X635000D01*
X615000Y342500D02*
Y350000D01*
X620000Y355000D01*
X629000D01*
X635000Y349000D01*
Y332000D02*
Y349000D01*
X550500Y272000D02*
X555000Y267500D01*
Y260000D02*
Y267500D01*
X440500Y310000D02*
X447500D01*
X514500D01*
X685000Y382500D02*
X690000Y377500D01*
X685000Y260000D02*
X690000Y265000D01*
X677500Y260000D02*
X685000D01*
X690000Y265000D02*
Y300000D01*
Y377500D01*
X514500Y310000D02*
X523000Y318500D01*
X677500Y285000D02*
X683000D01*
X671500Y315000D02*
Y327500D01*
X666500Y310000D02*
X671500Y315000D01*
X566500Y310000D02*
X666500D01*
X558000Y318500D02*
X566500Y310000D01*
X523000Y318500D02*
X558000D01*
X416843Y331500D02*
X564000D01*
X571550Y323950D01*
X623000D01*
X679500Y300000D02*
X680000D01*
X690000D01*
X426000Y274500D02*
Y309500D01*
Y274500D02*
X435000Y265500D01*
Y260000D02*
Y265500D01*
X436250Y267250D02*
X441000Y272000D01*
X550500D01*
D11*
X490000Y197500D02*
X507500Y215000D01*
X405000Y197500D02*
X490000D01*
X392500Y210000D02*
X405000Y197500D01*
X278000Y189000D02*
X288000Y179000D01*
X227500Y182500D02*
X232500D01*
X222500Y187500D02*
X227500Y182500D01*
X222500Y187500D02*
Y219500D01*
X226500Y201500D02*
X232500Y207500D01*
X226500Y192000D02*
Y201500D01*
Y192000D02*
X229500Y189000D01*
X278000D01*
X232500Y207500D02*
Y219500D01*
X197500Y203000D02*
Y258500D01*
Y203000D02*
X205000Y195500D01*
X212500D01*
X193500Y176500D02*
X489000D01*
X182500Y187500D02*
X193500Y176500D01*
X182500Y187500D02*
Y219500D01*
X168500Y174000D02*
X491500D01*
X132500Y210000D02*
X168500Y174000D01*
X147500Y200000D02*
Y252500D01*
Y200000D02*
X165000Y182500D01*
X172500D01*
X242500Y210000D02*
Y219500D01*
X232500Y200000D02*
X242500Y210000D01*
X232500Y195500D02*
Y200000D01*
X268000Y202500D02*
X285000D01*
X290000Y197500D01*
Y191500D02*
Y197500D01*
X262500Y208000D02*
X268000Y202500D01*
X288000Y179000D02*
X486500D01*
X286500Y206000D02*
X331500D01*
X282500Y210000D02*
X286500Y206000D01*
X282500Y210000D02*
Y219500D01*
X331500Y206000D02*
X340000Y197500D01*
Y185000D02*
Y197500D01*
X392000Y205500D02*
X406000Y191500D01*
X383000Y205500D02*
X392000D01*
X377500Y211000D02*
X383000Y205500D01*
X390000Y202500D02*
X408500Y184000D01*
X349500Y202500D02*
X390000D01*
X342500Y209500D02*
X349500Y202500D01*
X408500Y184000D02*
X481500D01*
X406000Y191500D02*
X412500D01*
X392500Y210000D02*
Y219500D01*
X512500Y210000D02*
X550000D01*
X510000Y212500D02*
X557500D01*
X507500Y215000D02*
X564500D01*
X505000Y187500D02*
X620000D01*
X510000Y197500D02*
X535000D01*
X515000Y207500D02*
X542500D01*
X491500Y174000D02*
X505000Y187500D01*
X489000Y176500D02*
X510000Y197500D01*
X486500Y179000D02*
X515000Y207500D01*
X337500Y205500D02*
X347500Y195500D01*
Y189500D02*
Y195500D01*
X412500Y191500D02*
Y192500D01*
X481500Y184000D02*
X510000Y212500D01*
X620000Y187500D02*
X625000Y192500D01*
Y197500D01*
X575000D02*
Y204500D01*
X564500Y215000D02*
X575000Y204500D01*
X565000Y197500D02*
Y205000D01*
X557500Y212500D02*
X565000Y205000D01*
X545000Y197500D02*
Y205000D01*
X542500Y207500D02*
X545000Y205000D01*
X550000Y210000D02*
X555000Y205000D01*
X490000Y360000D02*
X495000Y355000D01*
X235000Y360000D02*
X240000Y355000D01*
X235000Y360000D02*
Y379000D01*
X580000Y335000D02*
Y357500D01*
X575000Y362500D02*
X580000Y357500D01*
X585000Y342500D02*
Y360000D01*
X580000Y365000D02*
X585000Y360000D01*
X625000Y335000D02*
Y342500D01*
X620000Y330000D02*
X625000Y335000D01*
X585000Y330000D02*
X620000D01*
X580000Y335000D02*
X585000Y330000D01*
X605000Y335000D02*
Y342500D01*
X602500Y332500D02*
X605000Y335000D01*
X592500Y332500D02*
X602500D01*
X590000Y335000D02*
Y362500D01*
Y335000D02*
X592500Y332500D01*
X245000Y362500D02*
Y379000D01*
Y362500D02*
X250000Y357500D01*
X337500Y365000D02*
X580000D01*
X335000Y362500D02*
X337500Y365000D01*
X265000Y362500D02*
X335000D01*
X265000D02*
Y379000D01*
X585000Y367500D02*
X590000Y362500D01*
X337500Y367500D02*
X585000D01*
X595000Y342500D02*
Y365000D01*
X590000Y370000D02*
X595000Y365000D01*
X467500Y370000D02*
X590000D01*
X335000D02*
Y379000D01*
Y370000D02*
X337500Y367500D01*
X465000Y372500D02*
X467500Y370000D01*
X555000Y282500D02*
Y307500D01*
X545000Y282500D02*
Y297500D01*
X495000Y342500D02*
Y355000D01*
X322500Y317500D02*
X337500Y332500D01*
X367500Y302500D02*
Y310000D01*
Y302500D02*
X372500Y297500D01*
X384500D01*
X392500Y289500D01*
Y279500D02*
Y289500D01*
X377500Y325500D02*
Y340000D01*
X372500Y320500D02*
X377500Y325500D01*
X356253Y320500D02*
X372500D01*
X355953Y320200D02*
X356253Y320500D01*
X355200Y320200D02*
X355953D01*
X352500Y317500D02*
X355200Y320200D01*
X352500Y300000D02*
Y317500D01*
X342500Y290000D02*
X352500Y300000D01*
X342500Y279500D02*
Y290000D01*
X347500Y300500D02*
Y310000D01*
X339500Y292500D02*
X347500Y300500D01*
X287000Y292500D02*
X339500D01*
X357500Y325000D02*
Y340000D01*
X355000Y322500D02*
X357500Y325000D01*
X335000Y322500D02*
X355000D01*
X332300Y319800D02*
X335000Y322500D01*
X332300Y297500D02*
Y319800D01*
X330000Y295200D02*
X332300Y297500D01*
X325000D02*
X327500Y300000D01*
Y310000D01*
X337500Y332500D02*
Y340000D01*
X282500Y288000D02*
X287000Y292500D01*
X282500Y279500D02*
Y288000D01*
X192500Y263500D02*
Y279500D01*
Y263500D02*
X197500Y258500D01*
X555000Y197500D02*
Y205000D01*
X342500Y209500D02*
Y219500D01*
X377500Y211000D02*
Y260000D01*
X392500Y219500D02*
Y279500D01*
X342500Y219500D02*
Y279500D01*
X282500Y219500D02*
Y279500D01*
X232500Y219500D02*
Y279500D01*
X182500Y219500D02*
Y279500D01*
X132500Y210000D02*
Y219500D01*
Y279500D01*
Y287500D01*
X595000Y230000D02*
Y242500D01*
X597500Y245000D01*
X602500D01*
X610000Y252500D01*
Y270000D01*
X605000Y275000D02*
X610000Y270000D01*
X605000Y275000D02*
Y282500D01*
X372500Y265000D02*
Y279500D01*
Y265000D02*
X377500Y260000D01*
X332500Y262500D02*
Y279500D01*
Y262500D02*
X337500Y257500D01*
Y205500D02*
Y257500D01*
X262500Y208000D02*
Y219500D01*
X152500Y257500D02*
Y279500D01*
X147500Y252500D02*
X152500Y257500D01*
X465000Y372500D02*
Y379000D01*
X320000Y300000D02*
X322500Y302500D01*
Y317500D01*
X182500Y287000D02*
X185500Y290000D01*
X225000D01*
X182500Y279500D02*
Y287000D01*
X137500Y292500D02*
X222500D01*
X132500Y287500D02*
X137500Y292500D01*
X232500Y279500D02*
Y287500D01*
X235000Y290000D01*
X280000D01*
X285200Y295200D01*
X330000D01*
X227500Y292500D02*
X277500D01*
X282500Y297500D01*
X225000Y290000D02*
X227500Y292500D01*
X282500Y297500D02*
X325000D01*
X225000Y295000D02*
X275000D01*
X280000Y300000D01*
X222500Y292500D02*
X225000Y295000D01*
X280000Y300000D02*
X320000D01*
X445000Y342500D02*
Y350000D01*
X450000Y357500D02*
X455000Y352500D01*
Y342500D02*
Y352500D01*
X465000Y342500D02*
Y350500D01*
X463000Y352500D02*
X465000Y350500D01*
X455000Y352500D02*
X463000D01*
X340000Y362500D02*
X575000D01*
X342500Y360000D02*
X490000D01*
X345000Y357500D02*
X450000D01*
X337500Y355000D02*
X342500Y360000D01*
X335000Y357500D02*
X340000Y362500D01*
X250000Y357500D02*
X335000D01*
X240000Y355000D02*
X337500D01*
X440000D02*
X445000Y350000D01*
X347000Y355000D02*
X440000D01*
X525000Y282500D02*
Y302500D01*
X535000Y282500D02*
Y312500D01*
X647500Y285000D02*
X655000D01*
X640000Y292500D02*
X647500Y285000D01*
X640000Y292500D02*
Y300000D01*
X484000Y181500D02*
X512500Y210000D01*
X340000Y185000D02*
X343500Y181500D01*
X484000D01*
X342000Y350000D02*
X347000Y355000D01*
X292500Y342500D02*
X300000Y350000D01*
X342000D01*
X340000Y352500D02*
X345000Y357500D01*
X292500Y350000D02*
X295000Y352500D01*
X340000D01*
D12*
X435000Y304500D02*
X440500Y310000D01*
X435000Y282500D02*
Y304500D01*
X620000Y272500D02*
X670000D01*
X615000Y267500D02*
X620000Y272500D01*
X615000Y260000D02*
Y267500D01*
X555000Y222500D02*
Y230000D01*
Y222500D02*
X557500Y220000D01*
X587500D01*
X590000Y217500D01*
X620000D01*
X625000Y222500D01*
Y230000D01*
X510000Y242500D02*
X515000Y237500D01*
X450000Y242500D02*
X510000D01*
X445000Y247500D02*
X450000Y242500D01*
X445000Y247500D02*
Y260000D01*
X435000Y237500D02*
X445000Y247500D01*
X435000Y230000D02*
Y237500D01*
X552500Y240000D02*
X553000D01*
X527500D02*
X552500D01*
X555000Y237500D01*
Y230000D02*
Y237500D01*
X525000D02*
X527500Y240000D01*
X525000Y230000D02*
Y237500D01*
X522500Y240000D02*
X525000Y237500D01*
X517500Y240000D02*
X522500D01*
X515000Y237500D02*
X517500Y240000D01*
X515000Y230000D02*
Y237500D01*
X237500Y320000D02*
X257500D01*
X185000D02*
X237500D01*
Y310000D02*
Y320000D01*
X257500D02*
X277500D01*
X257500Y310000D02*
Y320000D01*
X277500Y310000D02*
Y320000D01*
X185000Y310000D02*
Y320000D01*
X207500Y329500D02*
X289314D01*
X267500Y329750D02*
Y340000D01*
X165000Y329500D02*
X207500D01*
Y340000D01*
X145000Y330000D02*
Y340000D01*
X128500Y329500D02*
X165000D01*
Y340000D01*
X125000Y333000D02*
X128500Y329500D01*
X125000Y333000D02*
Y340000D01*
X615000Y252500D02*
Y260000D01*
Y252500D02*
X617500Y250000D01*
X620000D01*
X625000Y245000D01*
Y230000D02*
Y245000D01*
X552500Y240000D02*
X565000Y252500D01*
X585000Y253000D02*
Y260000D01*
X582000Y250000D02*
X585000Y253000D01*
X567500Y250000D02*
X582000D01*
X565000Y252500D02*
X567500Y250000D01*
X565000Y252500D02*
Y260000D01*
X595000Y270000D02*
X602500D01*
X587500D02*
X595000D01*
Y260000D02*
Y270000D01*
X605000Y260000D02*
Y267500D01*
X602500Y270000D02*
X605000Y267500D01*
X585000D02*
X587500Y270000D01*
X585000Y260000D02*
Y267500D01*
X277500Y320000D02*
X294000D01*
X304000D01*
X307500Y316500D01*
Y310000D02*
Y316500D01*
X289314Y329500D02*
X294000Y334186D01*
X317500Y333500D02*
Y340000D01*
X125000Y302500D02*
Y310000D01*
Y302500D02*
X127500Y300000D01*
X152500D01*
X155000Y302500D01*
Y310000D01*
Y302500D02*
X157500Y300000D01*
X205000D01*
X207500Y302500D01*
Y310000D01*
X247500Y302500D02*
Y310000D01*
X244500Y299500D02*
X247500Y302500D01*
X230000Y299500D02*
X244500D01*
X227500Y302000D02*
X230000Y299500D01*
X227500Y302000D02*
Y310000D01*
X225500Y300000D02*
X227500Y302000D01*
X210000Y300000D02*
X225500D01*
X207500Y302500D02*
X210000Y300000D01*
X294000Y334186D02*
X299814Y340000D01*
X307500D01*
X377500Y310000D02*
Y317500D01*
X391500Y331500D02*
X397157D01*
X377500Y317500D02*
X391500Y331500D01*
X670000Y272500D02*
X677500Y280000D01*
Y285000D01*
X304000Y320000D02*
X317500Y333500D01*
X110000Y320000D02*
X185000D01*
D13*
X294000Y314500D02*
Y320000D01*
D14*
X372500Y279500D02*
D03*
X382500D02*
D03*
X392500D02*
D03*
X402500D02*
D03*
X412500D02*
D03*
Y219500D02*
D03*
X402500D02*
D03*
X392500D02*
D03*
X382500D02*
D03*
X332500D02*
D03*
X342500D02*
D03*
X352500D02*
D03*
X362500D02*
D03*
Y279500D02*
D03*
X352500D02*
D03*
X342500D02*
D03*
X332500D02*
D03*
X322500D02*
D03*
X262500D02*
D03*
X272500D02*
D03*
X282500D02*
D03*
X292500D02*
D03*
X302500D02*
D03*
Y219500D02*
D03*
X292500D02*
D03*
X282500D02*
D03*
X272500D02*
D03*
X222500D02*
D03*
X232500D02*
D03*
X242500D02*
D03*
X252500D02*
D03*
Y279500D02*
D03*
X242500D02*
D03*
X232500D02*
D03*
X222500D02*
D03*
X212500D02*
D03*
X162500D02*
D03*
X172500D02*
D03*
X182500D02*
D03*
X192500D02*
D03*
X202500D02*
D03*
Y219500D02*
D03*
X192500D02*
D03*
X182500D02*
D03*
X172500D02*
D03*
X122500D02*
D03*
X132500D02*
D03*
X142500D02*
D03*
X152500D02*
D03*
Y279500D02*
D03*
X142500D02*
D03*
X132500D02*
D03*
X122500D02*
D03*
X112500D02*
D03*
D15*
X372500Y219500D02*
D03*
X322500D02*
D03*
X262500D02*
D03*
X212500D02*
D03*
X162500D02*
D03*
X112500D02*
D03*
X435000Y230000D02*
D03*
D16*
X125000Y190000D02*
D03*
X675000D02*
D03*
Y400000D02*
D03*
X125000D02*
D03*
D17*
X395000Y379000D02*
D03*
X385000D02*
D03*
X375000D02*
D03*
X365000D02*
D03*
X355000D02*
D03*
X345000D02*
D03*
X335000D02*
D03*
X325000D02*
D03*
X315000D02*
D03*
X305000D02*
D03*
X295000D02*
D03*
X285000D02*
D03*
X275000D02*
D03*
X235000D02*
D03*
X245000D02*
D03*
X255000D02*
D03*
X265000D02*
D03*
X195000D02*
D03*
X205000D02*
D03*
X215000D02*
D03*
X225000D02*
D03*
X155000D02*
D03*
X165000D02*
D03*
X175000D02*
D03*
X185000D02*
D03*
X435000D02*
D03*
X425000D02*
D03*
X415000D02*
D03*
X405000D02*
D03*
X475000D02*
D03*
X465000D02*
D03*
X455000D02*
D03*
X445000D02*
D03*
X515000D02*
D03*
X505000D02*
D03*
X495000D02*
D03*
X485000D02*
D03*
X525000D02*
D03*
X535000D02*
D03*
X545000D02*
D03*
X555000D02*
D03*
X565000D02*
D03*
X575000D02*
D03*
X585000D02*
D03*
X595000D02*
D03*
X605000D02*
D03*
X615000D02*
D03*
X625000D02*
D03*
X635000D02*
D03*
Y404000D02*
D03*
X625000D02*
D03*
X615000D02*
D03*
X605000D02*
D03*
X595000D02*
D03*
X585000D02*
D03*
X575000D02*
D03*
X565000D02*
D03*
X555000D02*
D03*
X545000D02*
D03*
X535000D02*
D03*
X525000D02*
D03*
X485000D02*
D03*
X495000D02*
D03*
X505000D02*
D03*
X515000D02*
D03*
X445000D02*
D03*
X455000D02*
D03*
X465000D02*
D03*
X475000D02*
D03*
X405000D02*
D03*
X415000D02*
D03*
X425000D02*
D03*
X435000D02*
D03*
X185000D02*
D03*
X175000D02*
D03*
X165000D02*
D03*
X155000D02*
D03*
X225000D02*
D03*
X215000D02*
D03*
X205000D02*
D03*
X195000D02*
D03*
X265000D02*
D03*
X255000D02*
D03*
X245000D02*
D03*
X235000D02*
D03*
X275000D02*
D03*
X285000D02*
D03*
X295000D02*
D03*
X305000D02*
D03*
X315000D02*
D03*
X325000D02*
D03*
X335000D02*
D03*
X345000D02*
D03*
X355000D02*
D03*
X365000D02*
D03*
X375000D02*
D03*
X385000D02*
D03*
X395000D02*
D03*
D18*
X645000Y379000D02*
D03*
Y404000D02*
D03*
D19*
X665000Y285000D02*
D03*
X655000D02*
D03*
D20*
X656700Y348700D02*
D03*
D21*
X646900Y327500D02*
D03*
X671500D02*
D03*
D22*
X675000Y367500D02*
D03*
X665000D02*
D03*
X132500Y371500D02*
D03*
Y357500D02*
D03*
X139500Y364500D02*
D03*
D23*
X555000Y260000D02*
D03*
X565000D02*
D03*
X575000D02*
D03*
X585000D02*
D03*
X595000D02*
D03*
X605000D02*
D03*
X615000D02*
D03*
X625000D02*
D03*
Y230000D02*
D03*
X615000D02*
D03*
X605000D02*
D03*
X595000D02*
D03*
X585000D02*
D03*
X575000D02*
D03*
X565000D02*
D03*
X435000Y342500D02*
D03*
X445000D02*
D03*
X455000D02*
D03*
X465000D02*
D03*
X475000D02*
D03*
X485000D02*
D03*
X495000D02*
D03*
X505000D02*
D03*
X515000D02*
D03*
X525000D02*
D03*
X535000D02*
D03*
X545000D02*
D03*
X555000D02*
D03*
X565000D02*
D03*
X575000D02*
D03*
X585000D02*
D03*
X595000D02*
D03*
X605000D02*
D03*
X615000D02*
D03*
X625000D02*
D03*
Y282500D02*
D03*
X615000D02*
D03*
X605000D02*
D03*
X595000D02*
D03*
X585000D02*
D03*
X575000D02*
D03*
X565000D02*
D03*
X555000D02*
D03*
X545000D02*
D03*
X535000D02*
D03*
X525000D02*
D03*
X515000D02*
D03*
X505000D02*
D03*
X495000D02*
D03*
X485000D02*
D03*
X475000D02*
D03*
X465000D02*
D03*
X455000D02*
D03*
X445000D02*
D03*
X217500Y310000D02*
D03*
X227500D02*
D03*
X237500D02*
D03*
X247500D02*
D03*
X257500D02*
D03*
X267500D02*
D03*
X277500D02*
D03*
Y340000D02*
D03*
X267500D02*
D03*
X257500D02*
D03*
X247500D02*
D03*
X237500D02*
D03*
X227500D02*
D03*
X217500D02*
D03*
X207500D02*
D03*
X307500D02*
D03*
X317500D02*
D03*
X327500D02*
D03*
X337500D02*
D03*
X347500D02*
D03*
X357500D02*
D03*
X367500D02*
D03*
X377500D02*
D03*
Y310000D02*
D03*
X367500D02*
D03*
X357500D02*
D03*
X347500D02*
D03*
X337500D02*
D03*
X327500D02*
D03*
X317500D02*
D03*
X125000Y340000D02*
D03*
X135000D02*
D03*
X145000D02*
D03*
X155000D02*
D03*
X165000D02*
D03*
X175000D02*
D03*
X185000D02*
D03*
Y310000D02*
D03*
X175000D02*
D03*
X165000D02*
D03*
X155000D02*
D03*
X145000D02*
D03*
X135000D02*
D03*
D24*
X555000Y230000D02*
D03*
X435000Y282500D02*
D03*
X207500Y310000D02*
D03*
X307500D02*
D03*
X125000D02*
D03*
D25*
X445000Y230000D02*
D03*
X455000D02*
D03*
X465000D02*
D03*
X475000D02*
D03*
X485000D02*
D03*
X495000D02*
D03*
X505000D02*
D03*
X515000D02*
D03*
X525000D02*
D03*
Y260000D02*
D03*
X515000D02*
D03*
X505000D02*
D03*
X495000D02*
D03*
X485000D02*
D03*
X475000D02*
D03*
X465000D02*
D03*
X455000D02*
D03*
X445000D02*
D03*
X435000D02*
D03*
D26*
X535000Y197500D02*
D03*
X545000D02*
D03*
X555000D02*
D03*
X565000D02*
D03*
X575000D02*
D03*
X585000D02*
D03*
X595000D02*
D03*
X605000D02*
D03*
X615000D02*
D03*
X640000Y260000D02*
D03*
Y220000D02*
D03*
X652500D02*
D03*
Y260000D02*
D03*
X665000D02*
D03*
Y220000D02*
D03*
X677500D02*
D03*
Y260000D02*
D03*
X152500Y360000D02*
D03*
X192500D02*
D03*
X452500Y191500D02*
D03*
X412500D02*
D03*
X347500Y187500D02*
D03*
X387500D02*
D03*
X330000Y191500D02*
D03*
X290000D02*
D03*
X232500Y182500D02*
D03*
X272500D02*
D03*
Y195500D02*
D03*
X232500D02*
D03*
X172500Y182500D02*
D03*
X212500D02*
D03*
X172500Y195500D02*
D03*
X212500D02*
D03*
X680000Y300000D02*
D03*
X640000D02*
D03*
D27*
X625000Y197500D02*
D03*
D28*
X402658Y347000D02*
D03*
D29*
X412500D02*
D03*
X294000Y314500D02*
D03*
Y334186D02*
D03*
X416843Y331500D02*
D03*
X397157D02*
D03*
D30*
X265000Y362500D02*
D03*
X555000Y307500D02*
D03*
X545000Y297500D02*
D03*
X292500Y350000D02*
D03*
Y342500D02*
D03*
X525000Y302500D02*
D03*
X535000Y312500D02*
D03*
X440500Y310000D02*
D03*
X447500D02*
D03*
X677500Y285000D02*
D03*
X683000D02*
D03*
X110000Y327500D02*
D03*
Y320000D02*
D03*
M02*
