M48
;Layer_Color=9474304
;FILE_FORMAT=2:5
INCH,TZ
;TYPE=PLATED
T1F00S00C0.02362
T2F00S00C0.02756
T3F00S00C0.03150
T4F00S00C0.03543
T5F00S00C0.03937
T7F00S00C0.12598
%
T01
X677500Y285000
X683000
X555000Y307500
X545000Y297500
X525000Y302500
X447500Y310000
X440500
X110000Y320000
Y327500
X265000Y362500
X292500Y350000
Y342500
X535000Y312500
T02
X625000Y230000
Y260000
Y282500
X615000
X605000
X595000
X585000
X575000
X565000
X555000
X545000
X535000
X525000
X515000
X505000
X495000
X485000
X475000
Y260000
X485000
X495000
X505000
X515000
X525000
X555000
X565000
X575000
X585000
X595000
X605000
X615000
Y230000
X605000
X595000
X585000
X575000
X565000
X555000
X525000
X515000
X505000
X495000
X485000
X475000
X465000
X455000
X445000
X435000
Y260000
X445000
X455000
X465000
Y282500
X455000
X445000
X435000
X377500Y310000
X367500
X357500
X347500
X337500
X327500
X317500
X307500
X277500
X267500
X257500
X247500
X237500
X227500
X217500
X207500
X185000
X175000
X165000
X155000
X145000
X135000
X125000
Y340000
X135000
X145000
X155000
X165000
X175000
X185000
X207500
X217500
X227500
X237500
X247500
X257500
X267500
X277500
X307500
X317500
X327500
X337500
X347500
X357500
X367500
X377500
X435000Y342500
X445000
X455000
X465000
X475000
X485000
X495000
X505000
X515000
X525000
X535000
X545000
X555000
X565000
X575000
X585000
X595000
X605000
X615000
X625000
T03
X640000Y220000
X652500
X665000
X677500
Y260000
X665000
X652500
X640000
Y300000
X680000
X412500Y279500
X402500
X392500
X382500
X372500
X362500
X352500
X342500
X332500
X322500
Y219500
X332500
X342500
X352500
X362500
X372500
X382500
X392500
X402500
X412500
Y191500
X387500Y187500
X347500
X330000Y191500
X452500
X290000
X272500Y195500
Y182500
Y219500
X282500
X292500
X302500
X262500
X252500
X242500
X232500
X222500
X212500
X202500
X192500
X182500
X172500
X162500
X172500Y195500
Y182500
X212500
Y195500
X232500
Y182500
Y279500
X242500
X252500
X262500
X272500
X282500
X292500
X302500
X222500
X212500
X202500
X192500
X182500
X172500
X162500
X152500
X142500
X132500
X122500
X112500
Y219500
X122500
X132500
X142500
X152500
Y360000
X139500Y364500
X132500Y371500
Y357500
X192500Y360000
X294000Y334186
Y314500
X397157Y331500
X416843
X412500Y347000
X402658
X665000Y367500
X675000
T04
X625000Y197500
X655000Y285000
X665000
X615000Y197500
X605000
X595000
X585000
X575000
X565000
X555000
X545000
X535000
T05
X155000Y379000
Y404000
X165000
X175000
X185000
X195000
X205000
X215000
X225000
X235000
X245000
X255000
X265000
X275000
X285000
X295000
X305000
Y379000
X295000
X285000
X275000
X265000
X255000
X245000
X235000
X225000
X215000
X205000
X195000
X185000
X175000
X165000
X315000
X325000
X335000
X345000
X355000
X365000
X375000
X385000
X395000
X405000
X415000
X425000
X435000
X445000
X455000
X465000
Y404000
X455000
X445000
X435000
X425000
X415000
X405000
X395000
X385000
X375000
X365000
X355000
X345000
X335000
X325000
X315000
X475000
X485000
X495000
X505000
X515000
X525000
X535000
X545000
X555000
X565000
X575000
X585000
X595000
X605000
X615000
Y379000
X605000
X595000
X585000
X575000
X565000
X555000
X545000
X535000
X525000
X515000
X505000
X495000
X485000
X475000
X625000
X635000
X645000
Y404000
X635000
X625000
T07
X675000Y190000
X125000
Y400000
X675000
M30
