G04 Layer_Color=8388736*
%FSLAX25Y25*%
%MOIN*%
G70*
G01*
G75*
%ADD35O,0.05800X0.12800*%
%ADD36R,0.05800X0.12800*%
%ADD37C,0.24800*%
%ADD38C,0.08400*%
%ADD39R,0.08400X0.08400*%
%ADD40C,0.08800*%
%ADD41O,0.20500X0.10600*%
%ADD42O,0.10600X0.20500*%
%ADD43C,0.08300*%
%ADD44O,0.05800X0.12800*%
%ADD45R,0.05800X0.12800*%
%ADD46O,0.05918X0.12800*%
%ADD47C,0.07000*%
%ADD48R,0.07000X0.07000*%
%ADD49R,0.07300X0.07300*%
%ADD50C,0.07300*%
%ADD51C,0.05800*%
D35*
X372500Y279500D02*
D03*
X382500D02*
D03*
X392500D02*
D03*
X402500D02*
D03*
X412500D02*
D03*
Y219500D02*
D03*
X402500D02*
D03*
X392500D02*
D03*
X382500D02*
D03*
X332500D02*
D03*
X342500D02*
D03*
X352500D02*
D03*
X362500D02*
D03*
Y279500D02*
D03*
X352500D02*
D03*
X342500D02*
D03*
X332500D02*
D03*
X322500D02*
D03*
X262500D02*
D03*
X272500D02*
D03*
X282500D02*
D03*
X292500D02*
D03*
X302500D02*
D03*
Y219500D02*
D03*
X292500D02*
D03*
X282500D02*
D03*
X272500D02*
D03*
X222500D02*
D03*
X232500D02*
D03*
X242500D02*
D03*
X252500D02*
D03*
Y279500D02*
D03*
X242500D02*
D03*
X232500D02*
D03*
X222500D02*
D03*
X212500D02*
D03*
X162500D02*
D03*
X172500D02*
D03*
X182500D02*
D03*
X192500D02*
D03*
X202500D02*
D03*
Y219500D02*
D03*
X192500D02*
D03*
X182500D02*
D03*
X172500D02*
D03*
X122500D02*
D03*
X132500D02*
D03*
X142500D02*
D03*
X152500D02*
D03*
Y279500D02*
D03*
X142500D02*
D03*
X132500D02*
D03*
X122500D02*
D03*
X112500D02*
D03*
D36*
X372500Y219500D02*
D03*
X322500D02*
D03*
X262500D02*
D03*
X212500D02*
D03*
X162500D02*
D03*
X112500D02*
D03*
X435000Y230000D02*
D03*
D37*
X125000Y190000D02*
D03*
X675000D02*
D03*
Y400000D02*
D03*
X125000D02*
D03*
D38*
X395000Y379000D02*
D03*
X385000D02*
D03*
X375000D02*
D03*
X365000D02*
D03*
X355000D02*
D03*
X345000D02*
D03*
X335000D02*
D03*
X325000D02*
D03*
X315000D02*
D03*
X305000D02*
D03*
X295000D02*
D03*
X285000D02*
D03*
X275000D02*
D03*
X235000D02*
D03*
X245000D02*
D03*
X255000D02*
D03*
X265000D02*
D03*
X195000D02*
D03*
X205000D02*
D03*
X215000D02*
D03*
X225000D02*
D03*
X155000D02*
D03*
X165000D02*
D03*
X175000D02*
D03*
X185000D02*
D03*
X435000D02*
D03*
X425000D02*
D03*
X415000D02*
D03*
X405000D02*
D03*
X475000D02*
D03*
X465000D02*
D03*
X455000D02*
D03*
X445000D02*
D03*
X515000D02*
D03*
X505000D02*
D03*
X495000D02*
D03*
X485000D02*
D03*
X525000D02*
D03*
X535000D02*
D03*
X545000D02*
D03*
X555000D02*
D03*
X565000D02*
D03*
X575000D02*
D03*
X585000D02*
D03*
X595000D02*
D03*
X605000D02*
D03*
X615000D02*
D03*
X625000D02*
D03*
X635000D02*
D03*
Y404000D02*
D03*
X625000D02*
D03*
X615000D02*
D03*
X605000D02*
D03*
X595000D02*
D03*
X585000D02*
D03*
X575000D02*
D03*
X565000D02*
D03*
X555000D02*
D03*
X545000D02*
D03*
X535000D02*
D03*
X525000D02*
D03*
X485000D02*
D03*
X495000D02*
D03*
X505000D02*
D03*
X515000D02*
D03*
X445000D02*
D03*
X455000D02*
D03*
X465000D02*
D03*
X475000D02*
D03*
X405000D02*
D03*
X415000D02*
D03*
X425000D02*
D03*
X435000D02*
D03*
X185000D02*
D03*
X175000D02*
D03*
X165000D02*
D03*
X155000D02*
D03*
X225000D02*
D03*
X215000D02*
D03*
X205000D02*
D03*
X195000D02*
D03*
X265000D02*
D03*
X255000D02*
D03*
X245000D02*
D03*
X235000D02*
D03*
X275000D02*
D03*
X285000D02*
D03*
X295000D02*
D03*
X305000D02*
D03*
X315000D02*
D03*
X325000D02*
D03*
X335000D02*
D03*
X345000D02*
D03*
X355000D02*
D03*
X365000D02*
D03*
X375000D02*
D03*
X385000D02*
D03*
X395000D02*
D03*
D39*
X645000Y379000D02*
D03*
Y404000D02*
D03*
D40*
X665000Y285000D02*
D03*
X655000D02*
D03*
D41*
X656700Y348700D02*
D03*
D42*
X646900Y327500D02*
D03*
X671500D02*
D03*
D43*
X675000Y367500D02*
D03*
X665000D02*
D03*
X132500Y371500D02*
D03*
Y357500D02*
D03*
X139500Y364500D02*
D03*
D44*
X555000Y260000D02*
D03*
X565000D02*
D03*
X575000D02*
D03*
X585000D02*
D03*
X595000D02*
D03*
X605000D02*
D03*
X615000D02*
D03*
X625000D02*
D03*
Y230000D02*
D03*
X615000D02*
D03*
X605000D02*
D03*
X595000D02*
D03*
X585000D02*
D03*
X575000D02*
D03*
X565000D02*
D03*
X435000Y342500D02*
D03*
X445000D02*
D03*
X455000D02*
D03*
X465000D02*
D03*
X475000D02*
D03*
X485000D02*
D03*
X495000D02*
D03*
X505000D02*
D03*
X515000D02*
D03*
X525000D02*
D03*
X535000D02*
D03*
X545000D02*
D03*
X555000D02*
D03*
X565000D02*
D03*
X575000D02*
D03*
X585000D02*
D03*
X595000D02*
D03*
X605000D02*
D03*
X615000D02*
D03*
X625000D02*
D03*
Y282500D02*
D03*
X615000D02*
D03*
X605000D02*
D03*
X595000D02*
D03*
X585000D02*
D03*
X575000D02*
D03*
X565000D02*
D03*
X555000D02*
D03*
X545000D02*
D03*
X535000D02*
D03*
X525000D02*
D03*
X515000D02*
D03*
X505000D02*
D03*
X495000D02*
D03*
X485000D02*
D03*
X475000D02*
D03*
X465000D02*
D03*
X455000D02*
D03*
X445000D02*
D03*
X217500Y310000D02*
D03*
X227500D02*
D03*
X237500D02*
D03*
X247500D02*
D03*
X257500D02*
D03*
X267500D02*
D03*
X277500D02*
D03*
Y340000D02*
D03*
X267500D02*
D03*
X257500D02*
D03*
X247500D02*
D03*
X237500D02*
D03*
X227500D02*
D03*
X217500D02*
D03*
X207500D02*
D03*
X307500D02*
D03*
X317500D02*
D03*
X327500D02*
D03*
X337500D02*
D03*
X347500D02*
D03*
X357500D02*
D03*
X367500D02*
D03*
X377500D02*
D03*
Y310000D02*
D03*
X367500D02*
D03*
X357500D02*
D03*
X347500D02*
D03*
X337500D02*
D03*
X327500D02*
D03*
X317500D02*
D03*
X125000Y340000D02*
D03*
X135000D02*
D03*
X145000D02*
D03*
X155000D02*
D03*
X165000D02*
D03*
X175000D02*
D03*
X185000D02*
D03*
Y310000D02*
D03*
X175000D02*
D03*
X165000D02*
D03*
X155000D02*
D03*
X145000D02*
D03*
X135000D02*
D03*
D45*
X555000Y230000D02*
D03*
X435000Y282500D02*
D03*
X207500Y310000D02*
D03*
X307500D02*
D03*
X125000D02*
D03*
D46*
X445000Y230000D02*
D03*
X455000D02*
D03*
X465000D02*
D03*
X475000D02*
D03*
X485000D02*
D03*
X495000D02*
D03*
X505000D02*
D03*
X515000D02*
D03*
X525000D02*
D03*
Y260000D02*
D03*
X515000D02*
D03*
X505000D02*
D03*
X495000D02*
D03*
X485000D02*
D03*
X475000D02*
D03*
X465000D02*
D03*
X455000D02*
D03*
X445000D02*
D03*
X435000D02*
D03*
D47*
X535000Y197500D02*
D03*
X545000D02*
D03*
X555000D02*
D03*
X565000D02*
D03*
X575000D02*
D03*
X585000D02*
D03*
X595000D02*
D03*
X605000D02*
D03*
X615000D02*
D03*
X640000Y260000D02*
D03*
Y220000D02*
D03*
X652500D02*
D03*
Y260000D02*
D03*
X665000D02*
D03*
Y220000D02*
D03*
X677500D02*
D03*
Y260000D02*
D03*
X152500Y360000D02*
D03*
X192500D02*
D03*
X452500Y191500D02*
D03*
X412500D02*
D03*
X347500Y187500D02*
D03*
X387500D02*
D03*
X330000Y191500D02*
D03*
X290000D02*
D03*
X232500Y182500D02*
D03*
X272500D02*
D03*
Y195500D02*
D03*
X232500D02*
D03*
X172500Y182500D02*
D03*
X212500D02*
D03*
X172500Y195500D02*
D03*
X212500D02*
D03*
X680000Y300000D02*
D03*
X640000D02*
D03*
D48*
X625000Y197500D02*
D03*
D49*
X402658Y347000D02*
D03*
D50*
X412500D02*
D03*
X294000Y314500D02*
D03*
Y334186D02*
D03*
X416843Y331500D02*
D03*
X397157D02*
D03*
D51*
X265000Y362500D02*
D03*
X555000Y307500D02*
D03*
X545000Y297500D02*
D03*
X292500Y350000D02*
D03*
Y342500D02*
D03*
X525000Y302500D02*
D03*
X535000Y312500D02*
D03*
X440500Y310000D02*
D03*
X447500D02*
D03*
X677500Y285000D02*
D03*
X683000D02*
D03*
X110000Y327500D02*
D03*
Y320000D02*
D03*
M02*
